<?xml version="1.0" standalone="no"?>
<!DOCTYPE svg PUBLIC "-//W3C//DTD SVG 20010904//EN"
 "http://www.w3.org/TR/2001/REC-SVG-20010904/DTD/svg10.dtd">
<svg version="1.0" xmlns="http://www.w3.org/2000/svg"
 width="384.000000pt" height="384.000000pt" viewBox="0 0 384.000000 384.000000"
 preserveAspectRatio="xMidYMid meet">
<metadata>
Created by potrace 1.15, written by Peter Selinger 2001-2017
</metadata>
<g transform="translate(0.000000,384.000000) scale(0.100000,-0.100000)"
fill="#000000" stroke="none">
<path d="M473 3666 c-22 -19 -28 -33 -28 -64 0 -38 8 -47 113 -156 389 -402
661 -982 816 -1741 31 -150 86 -492 86 -527 0 -7 -29 42 -65 110 -201 382
-501 723 -846 958 -123 84 -253 144 -314 146 -43 0 -52 -3 -77 -31 -15 -17
-28 -38 -28 -47 0 -31 34 -78 131 -182 457 -488 678 -1052 721 -1837 11 -207
13 -221 35 -242 29 -30 65 -29 100 1 l28 24 -3 149 c-8 403 -86 814 -216 1148
-93 237 -245 505 -369 649 l-52 60 85 -64 c105 -81 304 -278 394 -390 327
-410 510 -888 532 -1399 6 -142 15 -174 50 -190 36 -16 49 -14 83 15 l31 26 0
116 c0 164 -18 526 -35 727 -84 961 -316 1726 -698 2295 l-50 75 74 -69 c242
-228 442 -502 609 -839 292 -587 446 -1269 469 -2080 l6 -229 28 -24 c36 -31
71 -30 104 2 l26 26 -7 276 c-22 858 164 1593 532 2106 117 162 304 338 453
427 100 60 120 108 66 167 -28 30 -95 29 -221 -3 -321 -81 -602 -292 -818
-614 -81 -122 -175 -305 -228 -443 l-37 -98 -43 118 c-123 338 -287 655 -465
903 -234 324 -521 593 -768 719 -114 58 -160 64 -204 26z m2271 -949 c-284
-303 -499 -771 -609 -1327 -16 -81 -24 -108 -29 -90 -3 14 -21 92 -40 175
l-34 150 33 115 c124 426 339 766 616 973 31 23 105 65 118 67 2 0 -23 -28
-55 -63z"/>
<path d="M3694 2391 c-45 -11 -170 -77 -251 -133 -451 -311 -818 -833 -978
-1389 -62 -216 -105 -497 -105 -695 0 -104 12 -130 67 -140 27 -5 37 -1 63 24
29 30 30 33 30 129 0 188 38 430 102 653 107 373 330 750 611 1033 85 85 238
217 251 217 3 0 -17 -28 -45 -62 -64 -80 -176 -267 -235 -394 -190 -404 -286
-835 -310 -1386 l-7 -157 31 -30 c34 -35 50 -38 91 -16 37 19 41 31 41 123 0
42 5 142 10 222 50 715 255 1266 642 1726 115 137 128 156 128 192 0 30 -41
82 -66 82 -7 0 -18 2 -26 4 -7 2 -27 1 -44 -3z"/>
</g>
</svg>
