<?xml version="1.0" standalone="no"?>
<!DOCTYPE svg PUBLIC "-//W3C//DTD SVG 20010904//EN"
 "http://www.w3.org/TR/2001/REC-SVG-20010904/DTD/svg10.dtd">
<svg version="1.0" xmlns="http://www.w3.org/2000/svg"
 width="384.000000pt" height="384.000000pt" viewBox="0 0 384.000000 384.000000"
 preserveAspectRatio="xMidYMid meet">
<metadata>
Created by potrace 1.15, written by Peter Selinger 2001-2017
</metadata>
<g transform="translate(0.000000,384.000000) scale(0.100000,-0.100000)"
fill="#000000" stroke="none">
<path d="M1460 3399 c-141 -22 -304 -91 -421 -179 -29 -22 -56 -40 -60 -40 -4
0 -38 15 -75 34 -142 70 -273 96 -480 96 l-124 0 0 -79 0 -79 168 -4 c137 -4
180 -9 237 -28 58 -18 140 -53 153 -65 2 -2 -15 -30 -37 -63 -56 -81 -105
-189 -132 -292 -19 -71 -23 -110 -23 -235 1 -177 18 -257 88 -400 51 -105 103
-177 212 -295 143 -154 221 -258 318 -423 56 -94 131 -254 155 -329 24 -72 91
-99 135 -55 45 45 165 458 182 629 6 62 8 67 28 63 49 -11 291 -25 443 -25
161 0 164 0 188 25 24 23 25 28 25 172 0 152 -15 415 -26 458 -7 27 -12 25
116 44 41 7 120 27 176 46 114 38 344 149 392 190 67 56 24 126 -85 140 -83
10 -204 50 -308 102 -148 74 -260 156 -436 320 -152 141 -269 208 -445 253
-93 24 -270 33 -364 19z m284 -163 c164 -32 263 -89 432 -248 210 -198 392
-319 587 -393 l58 -21 -63 -27 c-174 -74 -309 -103 -426 -93 -68 5 -75 4 -98
-19 -29 -29 -31 -63 -5 -113 37 -73 61 -280 53 -466 l-4 -78 -211 5 c-224 5
-289 16 -348 59 -20 15 -35 19 -56 14 -56 -15 -63 -30 -63 -136 0 -109 -18
-228 -57 -373 l-26 -98 -58 110 c-98 187 -201 329 -350 487 -123 130 -167 188
-210 279 -52 109 -70 181 -76 306 -25 507 424 900 921 805z"/>
<path d="M2765 1835 c-31 -30 -32 -66 -2 -101 33 -38 81 -37 115 1 64 75 -44
170 -113 100z"/>
<path d="M3452 1837 c-38 -40 -28 -98 20 -123 77 -40 148 65 85 124 -31 29
-77 29 -105 -1z"/>
<path d="M2100 1167 c-72 -36 -49 -146 31 -147 81 -1 110 108 38 145 -34 18
-37 18 -69 2z"/>
<path d="M2794 1170 c-28 -11 -54 -48 -54 -78 0 -33 43 -72 78 -72 66 0 103
75 60 123 -27 30 -55 39 -84 27z"/>
<path d="M2087 398 c-27 -21 -36 -60 -22 -94 31 -75 145 -49 145 32 0 58 -77
96 -123 62z"/>
</g>
</svg>
