<?xml version="1.0" standalone="no"?>
<!DOCTYPE svg PUBLIC "-//W3C//DTD SVG 20010904//EN"
 "http://www.w3.org/TR/2001/REC-SVG-20010904/DTD/svg10.dtd">
<svg version="1.0" xmlns="http://www.w3.org/2000/svg"
 width="384.000000pt" height="384.000000pt" viewBox="0 0 384.000000 384.000000"
 preserveAspectRatio="xMidYMid meet">
<metadata>
Created by potrace 1.15, written by Peter Selinger 2001-2017
</metadata>
<g transform="translate(0.000000,384.000000) scale(0.100000,-0.100000)"
fill="#000000" stroke="none">
<path d="M1610 3829 c-76 -13 -151 -52 -211 -110 l-51 -50 -53 10 c-192 36
-385 -109 -403 -302 -2 -32 -8 -56 -11 -54 -98 53 -128 62 -216 62 -82 0 -97
-3 -157 -33 -77 -38 -128 -90 -167 -172 -22 -46 -26 -69 -26 -143 l0 -88 -40
-10 c-101 -28 -181 -96 -228 -197 -62 -133 -35 -287 70 -394 65 -66 148 -102
239 -103 l71 0 -28 -35 c-43 -53 -78 -140 -85 -207 l-7 -61 -41 -12 c-94 -27
-188 -108 -229 -198 -18 -38 -22 -66 -22 -142 0 -84 3 -102 28 -152 34 -69 94
-131 162 -166 44 -24 61 -27 152 -27 96 0 103 -1 103 -20 0 -36 50 -129 93
-173 139 -144 377 -140 510 8 43 48 45 48 83 40 136 -32 307 16 423 117 29 25
53 44 55 42 1 -2 12 -92 24 -199 12 -107 29 -251 37 -319 22 -188 -1 -293 -83
-376 -75 -75 -145 -103 -364 -145 -201 -39 -237 -61 -223 -136 l6 -34 864 0
c846 0 865 0 865 19 0 58 -30 74 -186 102 -189 33 -259 65 -319 142 -53 70
-58 103 -63 365 l-4 244 -68 66 c-164 162 -208 294 -217 643 l-6 206 63 34
c34 18 89 59 120 91 32 32 63 58 69 58 24 0 19 -23 -18 -79 -54 -85 -74 -166
-69 -283 3 -82 8 -103 39 -168 47 -97 118 -169 218 -218 74 -37 76 -37 200
-37 120 0 129 1 196 32 84 38 100 38 115 2 17 -40 112 -126 167 -152 73 -34
208 -31 285 5 75 35 138 95 174 165 26 53 29 67 29 158 0 91 -3 105 -29 158
-16 32 -49 76 -73 98 -34 31 -43 46 -43 73 0 30 4 34 43 45 174 51 283 231
247 408 -28 135 -116 231 -247 269 -49 14 -53 18 -64 57 -34 132 -182 257
-303 257 l-34 0 28 53 c128 237 -36 517 -305 520 -78 0 -154 -21 -210 -58
l-35 -24 -25 50 c-56 109 -161 178 -286 187 l-69 5 -25 54 c-34 74 -59 108
-116 153 -86 68 -204 97 -319 79z"/>
</g>
</svg>
