<?xml version="1.0" standalone="no"?>
<!DOCTYPE svg PUBLIC "-//W3C//DTD SVG 20010904//EN"
 "http://www.w3.org/TR/2001/REC-SVG-20010904/DTD/svg10.dtd">
<svg version="1.0" xmlns="http://www.w3.org/2000/svg"
 width="384.000000pt" height="384.000000pt" viewBox="0 0 384.000000 384.000000"
 preserveAspectRatio="xMidYMid meet">
<metadata>
Created by potrace 1.15, written by Peter Selinger 2001-2017
</metadata>
<g transform="translate(0.000000,384.000000) scale(0.100000,-0.100000)"
fill="#000000" stroke="none">
<path d="M1868 3799 c-130 -160 -250 -437 -312 -719 -40 -184 -56 -310 -68
-550 l-12 -226 -72 86 c-83 99 -258 270 -360 352 -123 100 -324 228 -478 304
-145 72 -250 113 -261 102 -16 -16 49 -376 101 -556 71 -243 216 -573 339
-766 30 -49 54 -90 53 -91 -2 -1 -43 7 -93 18 -74 16 -127 20 -295 21 -182 1
-215 -2 -295 -22 -128 -32 -125 -28 -81 -108 143 -262 432 -508 734 -626 45
-17 82 -34 82 -37 -1 -3 -38 -31 -83 -61 -48 -32 -146 -117 -235 -205 l-154
-150 34 -14 c113 -46 546 -81 762 -61 180 17 399 81 568 166 48 24 88 39 88
33 0 -37 35 -238 55 -319 40 -162 100 -311 134 -337 26 -20 70 -15 96 12 30
29 32 63 6 113 -29 57 -78 219 -100 328 -21 108 -33 204 -25 204 2 0 41 -18
86 -41 158 -79 376 -142 557 -159 213 -20 647 15 760 61 l33 14 -154 150 c-96
94 -186 173 -242 210 l-89 59 54 18 c91 30 269 125 364 193 165 118 327 295
411 449 44 80 47 76 -81 108 -79 20 -114 23 -295 22 -169 0 -221 -4 -297 -21
-51 -11 -93 -20 -93 -19 0 2 30 52 66 112 173 287 304 614 378 944 27 124 60
350 51 358 -11 11 -116 -30 -261 -102 -160 -80 -340 -193 -469 -296 -106 -85
-280 -254 -370 -361 l-72 -86 -7 166 c-13 313 -51 565 -121 796 -62 203 -174
431 -264 536 l-37 42 -36 -44z m103 -371 c126 -318 191 -680 193 -1068 0 -230
-10 -364 -45 -575 -11 -66 -23 -136 -26 -155 -4 -25 13 0 56 85 185 358 478
699 827 963 153 115 364 244 364 223 0 -5 -20 -79 -44 -164 -110 -383 -310
-783 -523 -1047 -77 -95 -219 -252 -238 -263 -8 -4 -15 -12 -15 -16 0 -4 22 2
49 15 90 44 295 116 407 145 142 36 329 54 456 44 116 -8 116 -3 2 -125 -145
-153 -355 -291 -571 -374 -85 -33 -278 -86 -368 -102 -64 -11 -72 -20 -23 -27
164 -22 460 -167 614 -301 l39 -34 -120 -7 c-330 -21 -552 17 -825 141 -98 44
-241 126 -259 148 -11 13 -18 10 -58 -20 -126 -96 -465 -231 -650 -259 -99
-15 -340 -18 -462 -6 l-64 6 44 36 c173 141 444 274 602 295 54 7 48 17 -18
28 -22 4 -93 21 -159 37 -302 76 -544 208 -747 409 -59 58 -112 115 -118 127
-11 21 -9 21 85 28 153 12 349 -11 518 -60 100 -29 282 -97 348 -130 27 -13
48 -20 48 -15 0 6 -4 10 -8 10 -14 0 -210 222 -290 328 -211 280 -393 665
-497 1055 -15 54 -25 101 -22 103 2 2 51 -24 109 -59 457 -274 853 -691 1078
-1133 33 -65 60 -115 60 -111 0 4 -11 74 -25 155 -40 239 -49 354 -49 587 0
297 21 476 90 753 38 156 87 304 136 414 l31 70 14 -27 c8 -15 32 -72 54 -127z"/>
</g>
</svg>
